HIERARCHY
ROOT root
{
	OFFSET	0	13.1	24.9
	CHANNELS 6  Xposition Yposition Zposition Xrotation Yrotation Zrotation
	JOINT spine_1
	{
		OFFSET	0	9.99999	0
		CHANNELS 3  Xrotation Yrotation Zrotation
		JOINT spine_2
		{
			OFFSET	0	112	-10
			CHANNELS 3  Xrotation Yrotation Zrotation
			JOINT spine_3
			{
				OFFSET	0	206.5	19.3
				CHANNELS 3  Xrotation Yrotation Zrotation
				JOINT spine_4
				{
					OFFSET	0	110.4	14.6
					CHANNELS 3  Xrotation Yrotation Zrotation
					JOINT neck_1
					{
						OFFSET	0	71.8	-50.3
						CHANNELS 3  Xrotation Yrotation Zrotation
						JOINT neck_2
						{
							OFFSET	0	86.2	-25.8
							CHANNELS 3  Xrotation Yrotation Zrotation
							JOINT head_ee
							{
								OFFSET	0	179.8	-8.7
								CHANNELS 3  Xrotation Yrotation Zrotation
								End Site
								{
									OFFSET	1	0	0
								}
							}
						}
					}
					JOINT left_clavicle
					{
						OFFSET	-43.2	22.4	-70.8
						CHANNELS 3  Xrotation Yrotation Zrotation
						JOINT left_shoulder
						{
							OFFSET	-93.9	-5.79999	48.7
							CHANNELS 3  Xrotation Yrotation Zrotation
							JOINT left_elbow
							{
								OFFSET	-291.4	-30.8	15.2
								CHANNELS 3  Xrotation Yrotation Zrotation
								JOINT left_lowarm_twist
								{
									OFFSET	-110.7	-3.89999	13.6
									CHANNELS 3  Xrotation Yrotation Zrotation
									JOINT left_hand
									{
										OFFSET	-110.7	-3.89999	13.6
										CHANNELS 3  Xrotation Yrotation Zrotation
										JOINT left_ee
										{
											OFFSET	-80.8	-5.10001	12.1
											CHANNELS 3  Xrotation Yrotation Zrotation
											End Site
											{
												OFFSET	1	0	0
											}
										}
									}
								}
							}
						}
					}
					JOINT right_clavicle
					{
						OFFSET	43.2	22.4	-70.8
						CHANNELS 3  Xrotation Yrotation Zrotation
						JOINT right_shoulder
						{
							OFFSET	93.9	-5.79999	48.7
							CHANNELS 3  Xrotation Yrotation Zrotation
							JOINT right_elbow
							{
								OFFSET	291.4	-30.8	15.2
								CHANNELS 3  Xrotation Yrotation Zrotation
								JOINT right_lowarm_twist
								{
									OFFSET	110.7	-3.89999	13.6
									CHANNELS 3  Xrotation Yrotation Zrotation
									JOINT right_hand
									{
										OFFSET	110.7	-3.89999	13.6
										CHANNELS 3  Xrotation Yrotation Zrotation
										JOINT right_ee
										{
											OFFSET	80.8	-5.10001	12.1
											CHANNELS 3  Xrotation Yrotation Zrotation
											End Site
											{
												OFFSET	1	0	0
											}
										}
									}
								}
							}
						}
					}
				}
			}
		}
	}
	JOINT left_hip
	{
		OFFSET	-82.8	-127.5	0.300001
		CHANNELS 3  Xrotation Yrotation Zrotation
		JOINT left_knee
		{
			OFFSET	-28.2	-396.7	2.2
			CHANNELS 3  Xrotation Yrotation Zrotation
			JOINT left_ankle
			{
				OFFSET	-11.7	-411.3	35.4
				CHANNELS 3  Xrotation Yrotation Zrotation
				JOINT left_toes
				{
					OFFSET	0	-60	-88.6
					CHANNELS 3  Xrotation Yrotation Zrotation
					JOINT left_foot_ee
					{
						OFFSET	-22.5	-16.5	-42.2
						CHANNELS 3  Xrotation Yrotation Zrotation
						End Site
						{
							OFFSET	1	0	0
						}
					}
				}
			}
		}
	}
	JOINT right_hip
	{
		OFFSET	82.8	-127.5	0.300001
		CHANNELS 3  Xrotation Yrotation Zrotation
		JOINT right_knee
		{
			OFFSET	28.2	-396.7	2.2
			CHANNELS 3  Xrotation Yrotation Zrotation
			JOINT right_ankle
			{
				OFFSET	11.7	-411.3	35.4
				CHANNELS 3  Xrotation Yrotation Zrotation
				JOINT right_toes
				{
					OFFSET	0	-60	-88.6
					CHANNELS 3  Xrotation Yrotation Zrotation
					JOINT right_foot_ee
					{
						OFFSET	22.5	-16.5	-42.2
						CHANNELS 3  Xrotation Yrotation Zrotation
						End Site
						{
							OFFSET	1	0	0
						}
					}
				}
			}
		}
	}
}
MOTION
Frames: 15
Frame Time: 0.02
1938.71 732.202 -1269.77 -4.57779 47.7364 2.67749 -2.06853 -0.113644 0.819287 -2.06817 -0.165545 0.810396 -2.07028 -0.359346 0.744998 -2.07098 -0.237182 0.792397 2.01088 11.9443 -6.17383 2.93544 26.141 -6.03825 -0.0 0.0 -0.0 9.33694 13.2533 17.2865 1.43181 -24.1264 41.4384 2.41461 -50.0957 1.12854 -16.3144 -0.851226 1.89744 -1.26993 5.25793 -6.14241 -0.0 0.0 -0.0 11.5639 15.8208 -23.1723 -29.6764 35.0133 -53.1028 0.356408 10.0128 -0.0312219 -44.9 3.4867 -4.38996 -6.15831 -26.0427 25.0161 0.0 0.0 0.0 -0.0177938 -15.5893 12.2259 -19.036 0.305864 2.8918 40.4803 25.3721 -5.22624 39.8608 -0.0 -0.0 -0.0 0.0 -0.0 40.3374 45.5237 -13.0977 -2.61087 -0.0986597 -0.388502 -23.5393 -17.7344 -3.58571 -0.307815 0.0 0.0 0.0 0.0 0.0 
1922.59 731.681 -1283.55 -3.86341 49.2591 1.35154 -2.58798 0.0117369 1.01762 -2.5874 -0.0530373 1.01631 -2.58777 -0.309575 0.969465 -2.58905 -0.152589 1.00619 1.7018 12.3821 -6.17251 2.64918 26.9374 -5.94199 -0.0 0.0 -0.0 9.60596 12.656 17.8345 1.35166 -25.2586 41.0974 2.26399 -48.2715 1.01453 -16.7395 -0.880489 1.94332 -1.28121 6.83381 -5.50313 -0.0 0.0 -0.0 12.0873 15.4047 -24.383 -29.221 34.7293 -52.3623 0.418218 11.7048 -0.0428675 -45.0603 3.50469 -4.39995 -6.20435 -26.0803 25.275 0.0 0.0 0.0 -0.582823 -15.0894 12.3405 -20.9333 0.283376 3.18205 41.8354 25.4528 -5.35632 40.0876 -0.0 -0.0 -0.0 0.0 -0.0 40.1205 45.2361 -13.1195 -5.70161 -0.192408 -0.853515 -24.0334 -19.658 -3.68286 -0.335568 0.0 0.0 0.0 0.0 0.0 
1904.08 733.017 -1298.08 -3.20323 49.8163 1.16999 -2.80911 0.0292163 1.12468 -2.80841 -0.0424048 1.12426 -2.80849 -0.330878 1.07531 -2.81007 -0.156911 1.11407 3.79834 12.6036 -4.14448 4.70148 25.3953 -4.08472 -0.0 0.0 -0.0 9.9318 13.338 18.3344 0.0617357 -24.5278 41.3061 2.20656 -47.5396 0.971917 -16.4683 -0.861783 1.91408 -1.18033 5.34341 -5.51315 -0.0 0.0 -0.0 12.1983 15.8222 -24.6216 -28.8931 36.0306 -51.7479 0.443231 12.3838 -0.048087 -45.2031 3.52073 -4.40881 -6.1678 -25.5784 25.4731 0.0 0.0 0.0 -0.410266 -15.0427 11.4011 -23.7628 0.23202 3.61315 42.0229 24.63 -5.3454 40.129 -0.0 -0.0 -0.0 0.0 -0.0 39.9368 45.4825 -14.3801 -7.34033 -0.231895 -1.10189 -24.0093 -20.5232 -3.69045 1.41482 -0.0 -0.0 0.0 0.0 0.0 
1879.38 737.634 -1315.59 -1.36021 50.2046 -0.703792 -2.96465 0.0631988 1.37067 -2.9636 -0.0241404 1.37192 -2.96299 -0.380667 1.31828 -2.96538 -0.167713 1.36184 2.07015 11.1518 -5.70518 2.86582 24.3567 -5.55492 -0.0 0.0 -0.0 9.71847 12.6028 18.0429 -2.35839 -21.4933 41.6201 2.10681 -46.2179 0.8991 -16.2814 -0.848971 1.89387 -0.992883 0.333128 -6.49794 -0.0 0.0 -0.0 11.7727 14.8501 -23.6844 -26.3711 37.591 -53.6035 0.409945 11.4794 -0.0412052 -46.9892 3.72322 -4.51624 -5.3992 -24.1041 21.8135 0.0 0.0 0.0 -0.557202 -13.3951 10.8346 -27.201 0.141058 4.13286 40.5965 25.9581 -5.25747 40.1274 -0.0 -0.0 -0.0 0.0 -0.0 38.4078 45.9802 -14.8877 -10.868 -0.292698 -1.6397 -21.0703 -18.1633 -3.21234 4.94489 -0.0 -0.0 0.0 0.0 0.0 
1856.9 735.146 -1329.91 0.698374 51.0645 -3.01188 -3.07492 0.192302 1.31488 -3.07397 0.108251 1.32445 -3.07018 -0.242891 1.30648 -3.07256 -0.0335267 1.32844 2.47654 10.6776 -5.42231 3.22253 23.2562 -5.34239 -0.0 0.0 -0.0 9.53358 11.3481 17.85 -4.47626 -20.4448 42.4951 2.0035 -44.7785 0.825412 -15.3096 -0.783427 1.78814 -0.832555 -2.51586 -6.66922 -0.0 0.0 -0.0 11.8607 14.9658 -23.8807 -25.0047 38.6122 -52.6319 0.381145 10.6922 -0.0356673 -47.4305 3.77376 -4.54181 -4.64669 -22.414 18.3619 0.0 0.0 0.0 -0.58633 -11.534 10.8431 -32.1267 -0.0432507 4.86611 41.5742 25.74 -5.34216 40.101 -0.0 -0.0 -0.0 0.0 -0.0 36.6001 45.5353 -14.7212 -16.2553 -0.32143 -2.46549 -12.9869 -16.3262 -1.96028 10.1495 -0.0 -0.0 0.0 0.0 0.0 
1829.94 738.404 -1347.25 2.82289 52.0918 -5.18551 -2.96739 0.170357 1.5955 -2.96598 0.068499 1.6031 -2.9623 -0.351423 1.56562 -2.9657 -0.0997856 1.60146 2.72389 9.16682 -3.77854 3.20452 19.215 -3.59967 -0.0 0.0 -0.0 9.28747 12.4627 17.2858 -7.74278 -19.5157 43.6067 1.92865 -43.6887 0.773201 -15.4179 -0.79064 1.79998 -0.595842 -5.45076 -6.34039 -0.0 0.0 -0.0 11.5275 12.7533 -23.1849 -23.4167 39.7391 -53.364 0.396052 11.1002 -0.0384851 -49.1316 3.97036 -4.63671 -4.41125 -21.5246 17.5051 0.0 0.0 0.0 -0.349663 -8.72313 10.1061 -35.5092 -0.206055 5.35943 40.7024 26.989 -5.30487 40.1731 -0.0 -0.0 -0.0 0.0 -0.0 36.4252 44.0287 -15.7502 -22.9499 -0.248954 -3.48955 -9.89948 -17.8576 -1.49476 12.7831 -0.0 -0.0 0.0 0.0 0.0 
1805.09 735.58 -1362.91 4.6279 52.5096 -6.40342 -3.06806 0.318795 1.75415 -3.06637 0.206546 1.77087 -3.05761 -0.264733 1.76311 -3.06194 0.0169939 1.78279 5.50044 9.64513 -5.09409 6.26462 20.9262 -5.57278 -0.0 0.0 -0.0 9.42195 11.4585 17.6351 -9.127 -18.572 43.9606 1.57983 -38.0441 0.54469 -14.1973 -0.710623 1.66579 -0.46281 -6.64485 -5.95238 -0.0 0.0 -0.0 11.7813 15.7836 -23.6688 -23.6284 39.6078 -53.2293 0.505603 14.0613 -0.0623551 -48.9027 3.94375 -4.62429 -4.0334 -22.3295 14.6716 0.0 0.0 0.0 3.74056 -7.45513 7.89539 -46.2537 -0.91177 6.85054 39.4205 25.8437 -5.13969 40.1277 -0.0 -0.0 -0.0 0.0 -0.0 33.7773 45.1652 -16.1487 -24.8678 -0.206191 -3.78075 -1.25143 -18.4033 -0.186466 11.3799 -0.0 -0.0 0.0 0.0 0.0 
1785.62 735.802 -1380.39 5.06314 52.7667 -6.45129 -3.24512 0.445804 1.87762 -3.24321 0.325445 1.90217 -3.22942 -0.19011 1.92042 -3.23454 0.115511 1.92634 8.01904 9.26825 -5.85581 8.94458 20.7258 -6.93449 -0.0 0.0 -0.0 8.87858 10.2596 16.7592 -10.6718 -18.8457 45.0988 1.3112 -33.0033 0.388451 -12.9188 -0.629906 1.52347 -0.37657 -8.35017 -6.09909 -0.0 0.0 -0.0 11.8701 15.6266 -23.8777 -21.8641 39.9459 -54.3324 0.492784 13.7184 -0.0592778 -48.5528 3.90315 -4.60508 -3.8486 -21.029 14.3617 0.0 0.0 0.0 7.89457 -6.08784 5.12352 -52.6161 -1.45756 7.66352 38.1799 26.1212 -5.02568 39.9985 -0.0 -0.0 -0.0 0.0 -0.0 31.3728 45.2343 -16.0476 -24.5835 -0.213145 -3.73767 4.7546 -14.7834 0.691718 10.2434 -0.0 -0.0 0.0 0.0 0.0 
1759.24 737.598 -1391.79 7.33897 51.2846 -9.07594 -3.6933 0.597174 2.15978 -3.69082 0.458565 2.19338 -3.66883 -0.155991 2.23534 -3.67574 0.198907 2.23194 7.47304 8.63382 -6.51931 8.38182 20.3001 -7.63707 -0.0 0.0 -0.0 8.90299 10.5142 16.7816 -13.8197 -17.8396 46.1163 1.19365 -30.5947 0.326498 -11.7448 -0.55861 1.39125 -0.214007 -9.39189 -5.44192 -0.0 0.0 -0.0 11.6975 16.3091 -23.4553 -20.4698 40.3028 -53.2596 0.669683 18.3529 -0.108184 -49.2545 3.98468 -4.64335 -3.73354 -21.7151 13.2432 0.0 0.0 0.0 11.1835 -3.80921 3.39844 -59.3696 -2.1323 8.45563 38.9496 24.8478 -5.06105 39.1418 -0.0 -0.0 -0.0 0.0 -0.0 29.0388 44.7241 -16.1418 -28.0577 -0.113546 -4.26147 9.41786 -15.8034 1.3541 8.35006 -0.0 -0.0 0.0 0.0 0.0 
1745.92 740.458 -1400.5 7.74917 52.2212 -9.63194 -4.13439 0.581238 2.35622 -4.13141 0.430172 2.3884 -4.10794 -0.254982 2.41339 -4.11605 0.129252 2.42337 7.57986 7.45477 -6.84119 8.39572 18.6056 -8.03738 -0.0 0.0 -0.0 8.75848 10.0248 16.5591 -14.6039 -17.1724 47.3786 1.07473 -28.0297 0.268264 -11.7934 -0.561511 1.39675 -0.297914 -9.2001 -5.92913 -0.0 0.0 -0.0 11.8961 16.5021 -23.8999 -18.478 41.559 -53.1729 0.622337 17.134 -0.0937539 -48.6521 3.91466 -4.61055 -3.57395 -21.4717 12.4281 0.0 0.0 0.0 14.2684 -1.33858 1.9102 -62.3288 -2.45663 8.7769 36.2533 26.7252 -4.84713 39.1818 -0.0 -0.0 -0.0 0.0 -0.0 27.2209 44.6325 -15.9923 -28.1404 -0.110789 -4.27386 13.9058 -21.9024 2.01044 6.72733 -0.0 -0.0 0.0 0.0 0.0 
1736.02 750.137 -1413.62 6.5301 54.9323 -8.12177 -4.14506 0.510803 2.59963 -4.14137 0.344405 2.62684 -4.11916 -0.404661 2.61824 -4.12873 0.0137689 2.64927 5.06343 7.74732 -6.65648 5.78289 19.0676 -7.36512 -0.0 0.0 -0.0 8.70129 9.80223 16.4723 -15.2211 -16.2301 47.2382 0.960096 -25.4355 0.216684 -10.5941 -0.491384 1.26028 -0.297038 -9.82508 -6.19055 -0.0 0.0 -0.0 12.077 16.4986 -24.3143 -14.6067 42.4749 -53.146 0.656752 18.0217 -0.104148 -49.3981 4.00141 -4.65105 -3.56098 -21.329 12.4349 0.0 0.0 0.0 15.8783 -2.24558 -0.0739782 -61.2582 -2.33736 8.66258 35.5851 25.6561 -4.74312 38.0982 -0.0 -0.0 -0.0 0.0 -0.0 24.8054 44.4141 -14.4642 -24.3084 -0.219671 -3.69596 12.1978 -19.4447 1.75668 8.86303 -0.0 -0.0 0.0 0.0 0.0 
1727.13 754.049 -1417.69 5.79394 54.3075 -7.56271 -3.92175 0.605997 2.78959 -3.91752 0.427333 2.82246 -3.88919 -0.368398 2.83075 -3.90036 0.0831017 2.8534 4.11411 7.48083 -7.23187 4.82842 19.1426 -7.86819 -0.0 0.0 -0.0 8.22711 9.37912 15.6343 -16.747 -15.8683 48.445 0.878395 -23.5151 0.182831 -9.11559 -0.408897 1.09008 -0.253892 -9.97262 -5.96079 -0.0 0.0 -0.0 12.0188 16.3825 -24.1863 -12.1155 43.5019 -51.7924 0.727093 19.808 -0.126952 -49.7169 4.03864 -4.66801 -3.5692 -21.098 12.622 0.0 0.0 0.0 17.775 -0.10174 -0.60507 -61.4036 -2.35344 8.67824 35.297 26.4812 -4.73789 37.3771 -0.0 -0.0 -0.0 0.0 -0.0 22.7807 45.2306 -14.092 -21.2496 -0.278695 -3.23035 11.6614 -20.0391 1.68622 8.72317 -0.0 -0.0 0.0 0.0 0.0 
1711.09 756.02 -1427.03 5.1171 55.0779 -7.27747 -3.76303 0.64116 2.93317 -3.75836 0.4533 2.96798 -3.72703 -0.37518 2.97885 -3.7394 0.0997634 3.00071 3.7008 6.31171 -7.24465 4.29647 17.1462 -7.85062 -0.0 0.0 -0.0 8.5679 9.46738 16.2533 -17.6396 -15.0147 49.0274 0.73692 -20.0545 0.130302 -8.49154 -0.375408 1.01762 -0.474666 -8.01866 -6.62325 -0.0 0.0 -0.0 11.8651 16.5148 -23.8285 -10.9248 44.0932 -51.1964 0.756444 20.5419 -0.137075 -50.653 4.1485 -4.71662 -3.61909 -20.9884 12.9895 0.0 0.0 0.0 22.2628 0.586492 -1.76705 -62.8424 -2.5146 8.83095 32.2833 26.5722 -4.40965 36.5479 -0.0 -0.0 -0.0 0.0 -0.0 20.7154 45.7263 -13.7151 -19.3149 -0.30316 -2.93452 13.8947 -27.1462 2.06551 8.98747 -0.0 -0.0 0.0 0.0 0.0 
1689.98 755.195 -1440.15 6.92683 55.613 -8.31899 -3.505 0.468639 2.94866 -3.50021 0.280143 2.97247 -3.47856 -0.530448 2.93818 -3.4906 -0.0599765 2.98503 5.99161 4.65172 -7.85591 6.59009 14.8267 -9.00086 -0.0 0.0 -0.0 8.15505 9.62062 15.4866 -20.0378 -13.8348 50.05 0.684457 -18.7298 0.112882 -8.03284 -0.351298 0.964139 -0.403699 -6.73201 -5.5889 -0.0 0.0 -0.0 11.8243 16.7869 -23.7226 -8.76129 44.707 -51.4268 0.7813 21.158 -0.145922 -49.8474 4.05392 -4.6749 -3.41441 -20.8344 11.8414 0.0 0.0 0.0 24.9938 1.86854 -3.99323 -61.5598 -2.37075 8.69501 36.1509 26.3239 -4.82342 36.1482 -0.0 -0.0 -0.0 0.0 -0.0 18.5373 45.039 -14.209 -19.7388 -0.298655 -2.99939 17.4488 -29.215 2.59597 9.44097 -0.0 -0.0 0.0 0.0 0.0 
1676.47 758.699 -1445.94 6.59111 56.8067 -8.67302 -3.28412 0.233522 3.07766 -3.27885 0.0373038 3.08627 -3.27016 -0.784455 2.98524 -3.28247 -0.303382 3.07157 1.90746 4.6865 -3.11359 2.06897 10.8505 -3.04988 -0.0 0.0 -0.0 7.05999 10.1106 13.4832 -21.1601 -14.0248 52.9271 0.722349 -19.6888 0.125349 -7.4169 -0.3196 0.892023 -0.722134 -3.1211 -6.18642 -0.0 0.0 -0.0 11.6963 16.6247 -23.438 -7.08357 44.9093 -51.7664 0.820605 22.1218 -0.160417 -53.3903 4.47407 -4.84837 -3.73537 -20.336 14.0921 0.0 0.0 0.0 25.4215 3.32536 -3.9231 -57.5985 -1.94632 8.25558 38.3866 25.9889 -5.04207 35.7154 -0.0 -0.0 -0.0 0.0 -0.0 17.3854 41.2182 -12.2121 -21.5332 -0.274268 -3.27365 18.6023 -29.0198 2.75171 8.41778 -0.0 -0.0 0.0 0.0 0.0 
